<svg width="318" height="279" xmlns="http://www.w3.org/2000/svg" xmlns:xlink="http://www.w3.org/1999/xlink"><defs><path d="M310.34 153.5l-62.43 108.131a30 30 0 0 1-25.98 15H97.07a30 30 0 0 1-25.98-15L8.66 153.5a30 30 0 0 1 0-30L71.09 15.369a30 30 0 0 1 25.98-15h124.86a30 30 0 0 1 25.98 15L310.34 123.5a30 30 0 0 1 0 30z" id="a"/></defs><g fill="none" fill-rule="evenodd"><g transform="translate(-1 1)"><mask id="b" fill="#fff"><use xlink:href="#a"/></mask><g mask="url(#b)" fill="#FFE01C" fill-rule="nonzero"><path transform="translate(-58 -13)" d="M0.5 0H455.5V303H0.5z"/></g></g><g transform="translate(76 58)" fill="#000" fill-rule="nonzero"><path d="M139.983 24.017C124.495 8.53 103.903 0 82 0S39.505 8.53 24.017 24.017C8.53 39.505 0 60.097 0 82s8.53 42.495 24.017 57.983C39.505 155.47 60.097 164 82 164s42.495-8.53 57.983-24.017C155.47 124.495 164 103.903 164 82s-8.53-42.495-24.017-57.983zM82 154.391C42.084 154.39 9.61 121.916 9.61 82 9.61 42.084 42.083 9.61 82 9.61c39.916 0 72.39 32.474 72.39 72.39 0 39.916-32.474 72.39-72.39 72.39z"/><path d="M134.764 64.607a4.828 4.828 0 0 0-3.89-3.303L100.089 56.8 86.321 28.705A4.815 4.815 0 0 0 82 26a4.815 4.815 0 0 0-4.32 2.705L63.911 56.799l-30.787 4.505a4.828 4.828 0 0 0-3.889 3.303 4.876 4.876 0 0 0 1.22 4.973L52.731 91.45l-5.259 30.878a4.869 4.869 0 0 0 1.917 4.746 4.79 4.79 0 0 0 5.074.37L82 112.863l27.536 14.58c.69.366 1.46.557 2.241.557 1.42 0 2.769-.63 3.685-1.724a4.876 4.876 0 0 0 1.065-3.949l-5.26-30.878 22.278-21.869a4.875 4.875 0 0 0 1.219-4.973zM102.728 86.28a4.874 4.874 0 0 0-1.386 4.295l4.037 23.703-21.137-11.19a4.785 4.785 0 0 0-4.484 0l-21.137 11.19 4.037-23.702a4.874 4.874 0 0 0-1.386-4.295l-17.1-16.787 23.631-3.458a4.821 4.821 0 0 0 3.628-2.654L82 41.816l10.568 21.566a4.821 4.821 0 0 0 3.628 2.654l23.631 3.458-17.1 16.786z"/></g></g></svg>